<svg width="192" height="192" viewBox="0 0 192 192" fill="none" xmlns="http://www.w3.org/2000/svg">
<g clip-path="url(#clip0_1_224)">
<path d="M186.195 48.6938C181.155 30.1425 161.861 10.845 143.306 5.805C131.929 2.97 116.689 0.04875 96 0C75.3113 0.04875 60.0713 2.97 48.6938 5.805C30.1425 10.845 10.845 30.1388 5.805 48.6938C2.97 60.0713 0.04875 75.3113 0 96C0.04875 116.689 2.97 131.929 5.805 143.306C10.845 161.861 30.1425 181.155 48.6938 186.195C60.0713 189.03 75.3187 191.951 96 192C116.685 191.951 131.929 189.03 143.306 186.195C161.861 181.155 181.155 161.861 186.195 143.306C189.03 131.929 191.951 116.681 192 96C191.951 75.3113 189.03 60.0713 186.195 48.6938Z" fill="#F3FEFF"/>
<path d="M119.638 68.0426C113.174 61.6664 104.601 58.2265 95.5223 58.3511C77.0688 58.6081 62.1824 73.8372 62.3381 92.2986C62.416 101.476 66.1181 110.023 72.7617 116.365C72.7747 116.375 72.7851 116.388 72.7981 116.399C76.4093 119.743 78.263 124.958 77.884 130.714C77.8243 131.61 78.1384 132.49 78.7537 133.147C79.3664 133.801 80.2257 134.175 81.124 134.175H110.884C111.782 134.175 112.641 133.803 113.254 133.147C113.867 132.49 114.181 131.61 114.121 130.711C113.737 124.977 115.611 119.74 119.267 116.344C119.28 116.334 119.29 116.321 119.303 116.311C125.988 109.901 129.667 101.271 129.667 92.013C129.667 82.7551 126.105 74.4188 119.641 68.0426H119.638Z" fill="url(#paint0_linear_1_224)"/>
<path d="M109.012 90.245C107.745 88.9781 105.689 88.9781 104.422 90.245C102.171 92.4959 99.1803 93.7342 95.9974 93.7342C92.8145 93.7342 89.8237 92.4959 87.5729 90.245C86.3059 88.9781 84.2498 88.9781 82.9829 90.245C81.7159 91.5119 81.7159 93.5681 82.9829 94.835C85.6803 97.5324 89.0709 99.2849 92.7496 99.9365V130.93C92.7496 132.721 94.2035 134.175 95.9948 134.175C97.7862 134.175 99.24 132.721 99.24 130.93V99.9365C102.921 99.2849 106.309 97.5324 109.007 94.835C110.274 93.5681 110.274 91.5119 109.007 90.245H109.012Z" fill="url(#paint1_linear_1_224)"/>
<path d="M110.879 127.684H81.1188C79.3274 127.684 77.8736 129.138 77.8736 130.93V138.432C77.8736 143.892 82.3156 148.337 87.7754 148.337H104.219C109.679 148.337 114.121 143.895 114.121 138.432V130.93C114.121 129.138 112.667 127.684 110.876 127.684H110.879Z" fill="url(#paint2_linear_1_224)"/>
<path d="M49.9726 95.2452H39.2452C37.4539 95.2452 36 93.7914 36 92C36 90.2086 37.4539 88.7548 39.2452 88.7548H49.9726C51.7639 88.7548 53.2178 90.2086 53.2178 92C53.2178 93.7914 51.7639 95.2452 49.9726 95.2452Z" fill="url(#paint3_linear_1_224)"/>
<path d="M152.755 95.2452H142.027C140.236 95.2452 138.782 93.7914 138.782 92C138.782 90.2086 140.236 88.7548 142.027 88.7548H152.755C154.546 88.7548 156 90.2086 156 92C156 93.7914 154.546 95.2452 152.755 95.2452Z" fill="url(#paint4_linear_1_224)"/>
<path d="M63.4544 62.6997C62.6237 62.6997 61.7929 62.3829 61.1594 61.7495L53.5734 54.1635C52.3065 52.8966 52.3065 50.8404 53.5734 49.5735C54.8404 48.3065 56.8965 48.3065 58.1634 49.5735L65.7494 57.1595C67.0164 58.4264 67.0164 60.4825 65.7494 61.7495C65.4484 62.0512 65.0906 62.2905 64.6968 62.4536C64.3029 62.6166 63.8807 62.7003 63.4544 62.6997Z" fill="url(#paint5_linear_1_224)"/>
<path d="M136.132 135.377C135.301 135.377 134.47 135.06 133.837 134.427L126.251 126.841C124.984 125.574 124.984 123.517 126.251 122.251C127.517 120.984 129.574 120.984 130.841 122.251L138.427 129.837C139.694 131.103 139.694 133.16 138.427 134.427C138.125 134.728 137.768 134.968 137.374 135.131C136.98 135.294 136.558 135.377 136.132 135.377Z" fill="url(#paint6_linear_1_224)"/>
<path d="M96 49.2178C94.2087 49.2178 92.7548 47.7639 92.7548 45.9726V35.2452C92.7548 33.4539 94.2087 32 96 32C97.7914 32 99.2452 33.4539 99.2452 35.2452V45.9726C99.2452 47.7639 97.7914 49.2178 96 49.2178Z" fill="url(#paint7_linear_1_224)"/>
<path d="M128.546 62.6997C127.715 62.6997 126.884 62.3829 126.251 61.7495C124.984 60.4825 124.984 58.4264 126.251 57.1595L133.837 49.5735C135.103 48.3065 137.16 48.3065 138.427 49.5735C139.694 50.8404 139.694 52.8966 138.427 54.1635L130.841 61.7495C130.539 62.0512 130.182 62.2905 129.788 62.4536C129.394 62.6166 128.972 62.7003 128.546 62.6997Z" fill="url(#paint8_linear_1_224)"/>
<path d="M55.8684 135.377C55.0377 135.377 54.2069 135.06 53.5734 134.427C52.3065 133.16 52.3065 131.103 53.5734 129.837L61.1594 122.251C62.4264 120.984 64.4825 120.984 65.7494 122.251C67.0164 123.517 67.0164 125.574 65.7494 126.841L58.1634 134.427C57.8624 134.728 57.5046 134.968 57.1108 135.131C56.7169 135.294 56.2947 135.377 55.8684 135.377Z" fill="url(#paint9_linear_1_224)"/>
</g>
<defs>
<linearGradient id="paint0_linear_1_224" x1="96" y1="134.175" x2="96" y2="58.3485" gradientUnits="userSpaceOnUse">
<stop stop-color="#FFBD00"/>
<stop offset="1" stop-color="#FFF065"/>
</linearGradient>
<linearGradient id="paint1_linear_1_224" x1="96" y1="134.175" x2="96" y2="89.2948" gradientUnits="userSpaceOnUse">
<stop stop-color="#FF9500"/>
<stop offset="1" stop-color="#FFCC1E"/>
</linearGradient>
<linearGradient id="paint2_linear_1_224" x1="96" y1="148.334" x2="96" y2="127.684" gradientUnits="userSpaceOnUse">
<stop stop-color="#333333"/>
<stop offset="1" stop-color="#666666"/>
</linearGradient>
<linearGradient id="paint3_linear_1_224" x1="44.6089" y1="95.2452" x2="44.6089" y2="88.7548" gradientUnits="userSpaceOnUse">
<stop stop-color="#FF9500"/>
<stop offset="1" stop-color="#FFCC1E"/>
</linearGradient>
<linearGradient id="paint4_linear_1_224" x1="147.391" y1="95.2452" x2="147.391" y2="88.7548" gradientUnits="userSpaceOnUse">
<stop stop-color="#FF9500"/>
<stop offset="1" stop-color="#FFCC1E"/>
</linearGradient>
<linearGradient id="paint5_linear_1_224" x1="59.6614" y1="62.6997" x2="59.6614" y2="48.6233" gradientUnits="userSpaceOnUse">
<stop stop-color="#FFBD00"/>
<stop offset="1" stop-color="#FFF065"/>
</linearGradient>
<linearGradient id="paint6_linear_1_224" x1="132.339" y1="135.377" x2="132.339" y2="121.303" gradientUnits="userSpaceOnUse">
<stop stop-color="#FFBD00"/>
<stop offset="1" stop-color="#FFF065"/>
</linearGradient>
<linearGradient id="paint7_linear_1_224" x1="29.5382" y1="49.2178" x2="29.7978" y2="32" gradientUnits="userSpaceOnUse">
<stop stop-color="#FF9500"/>
<stop offset="1" stop-color="#FFCC1E"/>
</linearGradient>
<linearGradient id="paint8_linear_1_224" x1="132.339" y1="62.6997" x2="132.339" y2="48.6233" gradientUnits="userSpaceOnUse">
<stop stop-color="#FFBD00"/>
<stop offset="1" stop-color="#FFF065"/>
</linearGradient>
<linearGradient id="paint9_linear_1_224" x1="59.6614" y1="135.377" x2="59.6614" y2="121.303" gradientUnits="userSpaceOnUse">
<stop stop-color="#FFBD00"/>
<stop offset="1" stop-color="#FFF065"/>
</linearGradient>
<clipPath id="clip0_1_224">
<rect width="192" height="192" fill="white"/>
</clipPath>
</defs>
</svg>
