<svg width="192" height="192" viewBox="0 0 192 192" fill="none" xmlns="http://www.w3.org/2000/svg">
<g clip-path="url(#clip0_403_43)">
<path d="M186.195 48.6938C181.155 30.1425 161.861 10.845 143.306 5.805C131.929 2.97 116.689 0.04875 96 0C75.3113 0.04875 60.0713 2.97 48.6938 5.805C30.1425 10.845 10.845 30.1388 5.805 48.6938C2.97 60.0713 0.04875 75.3113 0 96C0.04875 116.689 2.97 131.929 5.805 143.306C10.845 161.861 30.1425 181.155 48.6938 186.195C60.0713 189.03 75.3187 191.951 96 192C116.685 191.951 131.929 189.03 143.306 186.195C161.861 181.155 181.155 161.861 186.195 143.306C189.03 131.929 191.951 116.681 192 96C191.951 75.3113 189.03 60.0713 186.195 48.6938Z" fill="#E9FDFF"/>
<path d="M141.511 52.7334H50.489C43.4197 52.7334 37.689 58.4642 37.689 65.5334V122.422C37.689 129.492 43.4197 135.222 50.489 135.222H141.511C148.58 135.222 154.311 129.492 154.311 122.422V65.5334C154.311 58.4642 148.58 52.7334 141.511 52.7334Z" fill="url(#paint0_linear_403_43)"/>
<path d="M152.889 132.378H39.1111C37.2251 132.378 35.4164 133.127 34.0828 134.461C32.7492 135.794 32 137.603 32 139.489C32 141.375 32.7492 143.184 34.0828 144.517C35.4164 145.851 37.2251 146.6 39.1111 146.6H152.889C154.775 146.6 156.584 145.851 157.917 144.517C159.251 143.184 160 141.375 160 139.489C160 137.603 159.251 135.794 157.917 134.461C156.584 133.127 154.775 132.378 152.889 132.378Z" fill="url(#paint1_linear_403_43)"/>
<path d="M83.2 132.378V133.8C83.2015 135.686 83.9511 137.494 85.2844 138.827C86.6177 140.16 88.4255 140.91 90.3111 140.911H101.689C103.574 140.91 105.382 140.16 106.715 138.827C108.049 137.494 108.798 135.686 108.8 133.8V132.378H83.2Z" fill="url(#paint2_linear_403_43)"/>
<path d="M141.568 58.4224H50.4319C48.554 58.4314 46.7563 59.1853 45.4337 60.5186C44.1111 61.8518 43.3717 63.6555 43.3777 65.5335V116.733C43.3717 118.611 44.1111 120.415 45.4337 121.748C46.7563 123.082 48.554 123.836 50.4319 123.845H141.568C143.446 123.836 145.244 123.082 146.566 121.748C147.889 120.415 148.628 118.611 148.622 116.733V65.5335C148.628 63.6555 147.889 61.8518 146.566 60.5186C145.244 59.1853 143.446 58.4314 141.568 58.4224Z" fill="url(#paint3_linear_403_43)"/>
<path d="M94.5779 58.4224H97.4223V123.845H94.5779V58.4224Z" fill="#EAFCFF"/>
<path d="M67.5555 106.778C77.7667 106.778 86.0444 98.5001 86.0444 88.2889C86.0444 78.0778 77.7667 69.8 67.5555 69.8C57.3444 69.8 49.0667 78.0778 49.0667 88.2889C49.0667 98.5001 57.3444 106.778 67.5555 106.778Z" fill="url(#paint4_linear_403_43)"/>
<path d="M80.3556 99.6667V101.658C76.9042 104.944 72.3212 106.777 67.5556 106.777C62.79 106.777 58.207 104.944 54.7556 101.658V99.6667C54.7556 96.2719 56.1042 93.0162 58.5046 90.6157C60.9051 88.2153 64.1608 86.8667 67.5556 86.8667C70.9504 86.8667 74.2061 88.2153 76.6066 90.6157C79.007 93.0162 80.3556 96.2719 80.3556 99.6667Z" fill="url(#paint5_linear_403_43)"/>
<path d="M67.5554 89.7112C71.4828 89.7112 74.6666 86.5275 74.6666 82.6001C74.6666 78.6728 71.4828 75.489 67.5554 75.489C63.6281 75.489 60.4443 78.6728 60.4443 82.6001C60.4443 86.5275 63.6281 89.7112 67.5554 89.7112Z" fill="url(#paint6_linear_403_43)"/>
<path d="M124.444 106.778C134.656 106.778 142.933 98.5001 142.933 88.2889C142.933 78.0778 134.656 69.8 124.444 69.8C114.233 69.8 105.956 78.0778 105.956 88.2889C105.956 98.5001 114.233 106.778 124.444 106.778Z" fill="url(#paint7_linear_403_43)"/>
<path d="M137.245 99.6667V101.658C133.793 104.944 129.21 106.777 124.445 106.777C119.679 106.777 115.096 104.944 111.645 101.658V99.6667C111.645 96.2719 112.993 93.0162 115.394 90.6157C117.794 88.2153 121.05 86.8667 124.445 86.8667C127.839 86.8667 131.095 88.2153 133.495 90.6157C135.896 93.0162 137.245 96.2719 137.245 99.6667Z" fill="url(#paint8_linear_403_43)"/>
<path d="M124.444 89.7112C128.372 89.7112 131.555 86.5275 131.555 82.6001C131.555 78.6728 128.372 75.489 124.444 75.489C120.517 75.489 117.333 78.6728 117.333 82.6001C117.333 86.5275 120.517 89.7112 124.444 89.7112Z" fill="url(#paint9_linear_403_43)"/>
</g>
<defs>
<linearGradient id="paint0_linear_403_43" x1="123.61" y1="128.109" x2="38.4514" y2="59.9613" gradientUnits="userSpaceOnUse">
<stop stop-color="#C6E0FF"/>
<stop offset="0.57" stop-color="#E8F2FF"/>
<stop offset="1" stop-color="#CFE5FF"/>
</linearGradient>
<linearGradient id="paint1_linear_403_43" x1="140.229" y1="148.733" x2="137.235" y2="121.01" gradientUnits="userSpaceOnUse">
<stop stop-color="#34344F"/>
<stop offset="1" stop-color="#666684"/>
</linearGradient>
<linearGradient id="paint2_linear_403_43" x1="103.152" y1="153.12" x2="79.5893" y2="142.223" gradientUnits="userSpaceOnUse">
<stop stop-color="#BCE4ED"/>
<stop offset="0.57" stop-color="white"/>
<stop offset="1" stop-color="white"/>
</linearGradient>
<linearGradient id="paint3_linear_403_43" x1="120.851" y1="118.206" x2="51.8981" y2="55.2861" gradientUnits="userSpaceOnUse">
<stop stop-color="#CEF6FF"/>
<stop offset="0.52" stop-color="white"/>
<stop offset="1" stop-color="white"/>
</linearGradient>
<linearGradient id="paint4_linear_403_43" x1="96.7385" y1="101.283" x2="77.4152" y2="57.8967" gradientUnits="userSpaceOnUse">
<stop stop-color="#1EB4EB"/>
<stop offset="0.54" stop-color="#1EB4EB"/>
<stop offset="1" stop-color="#92F4FE"/>
</linearGradient>
<linearGradient id="paint5_linear_403_43" x1="75.2998" y1="115.308" x2="52.3875" y2="101.721" gradientUnits="userSpaceOnUse">
<stop stop-color="#884AE6"/>
<stop offset="0.44" stop-color="#4608A4"/>
<stop offset="1" stop-color="#884AE6"/>
</linearGradient>
<linearGradient id="paint6_linear_403_43" x1="71.4578" y1="84.2954" x2="60.0078" y2="77.3439" gradientUnits="userSpaceOnUse">
<stop stop-color="#FF9F7D"/>
<stop offset="0.55" stop-color="#FF9F7D"/>
<stop offset="1" stop-color="#FFD4C7"/>
</linearGradient>
<linearGradient id="paint7_linear_403_43" x1="153.627" y1="101.283" x2="134.304" y2="57.8967" gradientUnits="userSpaceOnUse">
<stop stop-color="#1EB4EB"/>
<stop offset="0.54" stop-color="#1EB4EB"/>
<stop offset="1" stop-color="#92F4FE"/>
</linearGradient>
<linearGradient id="paint8_linear_403_43" x1="124.444" y1="106.777" x2="124.444" y2="86.8669" gradientUnits="userSpaceOnUse">
<stop stop-color="#FFBD00"/>
<stop offset="1" stop-color="#FFF065"/>
</linearGradient>
<linearGradient id="paint9_linear_403_43" x1="128.347" y1="84.2954" x2="116.897" y2="77.3439" gradientUnits="userSpaceOnUse">
<stop stop-color="#FF9F7D"/>
<stop offset="0.55" stop-color="#FF9F7D"/>
<stop offset="1" stop-color="#FFD4C7"/>
</linearGradient>
<clipPath id="clip0_403_43">
<rect width="192" height="192" fill="white"/>
</clipPath>
</defs>
</svg>
