<svg width="192" height="192" viewBox="0 0 192 192" fill="none" xmlns="http://www.w3.org/2000/svg">
<g clip-path="url(#clip0_1_246)">
<path d="M186.195 48.6938C181.155 30.1425 161.861 10.845 143.306 5.805C131.929 2.97 116.689 0.04875 96 0C75.3113 0.04875 60.0713 2.97 48.6938 5.805C30.1425 10.845 10.845 30.1388 5.805 48.6938C2.97 60.0713 0.04875 75.3113 0 96C0.04875 116.689 2.97 131.929 5.805 143.306C10.845 161.861 30.1425 181.155 48.6938 186.195C60.0713 189.03 75.3187 191.951 96 192C116.685 191.951 131.929 189.03 143.306 186.195C161.861 181.155 181.155 161.861 186.195 143.306C189.03 131.929 191.951 116.681 192 96C191.951 75.3113 189.03 60.0713 186.195 48.6938Z" fill="#FFF8ED"/>
<path d="M109.5 47.4141L120.117 68.2969L142.922 71.5078C155.508 73.2891 160.453 88.8047 151.219 97.5234L135.023 112.828L138.937 135.023C141.117 147.352 128.273 156.844 117.117 151.172L95.9531 140.391L74.789 151.172C63.6328 156.867 50.789 147.352 52.9687 135.023L56.8828 112.828L40.6875 97.5234C31.4531 88.8047 36.4219 73.2656 48.9844 71.5078L71.789 68.2969L82.4062 47.4141C88.1015 36.375 103.898 36.375 109.5 47.4141Z" fill="url(#paint0_linear_1_246)"/>
<path d="M77.9531 96.1641H114.047C116.813 96.1641 119.062 98.4141 119.062 101.18V101.273C119.062 113.953 108.773 124.242 96.0937 124.242H96C83.2734 124.242 72.9609 113.906 72.9609 101.203C72.9609 98.4141 75.1875 96.1641 77.9531 96.1641Z" fill="url(#paint1_radial_1_246)"/>
<path d="M110.25 119.344C106.359 122.391 101.437 124.219 96.0937 124.219H96C90.6328 124.219 85.6875 122.391 81.7734 119.297C84.9844 114.938 90.1641 112.125 96 112.125C101.836 112.125 107.016 114.961 110.25 119.344Z" fill="url(#paint2_linear_1_246)"/>
<path d="M116.531 96.8437V98.1797C116.531 101.508 113.836 104.18 110.531 104.18H81.4688C78.1406 104.18 75.4688 101.484 75.4688 98.1797V96.8437C76.1953 96.4219 77.0625 96.1641 77.9766 96.1641H114.047C114.961 96.1641 115.805 96.4219 116.531 96.8437Z" fill="url(#paint3_linear_1_246)"/>
<path d="M103.945 85.1016C103.383 85.1016 102.797 84.9609 102.281 84.6328C100.805 83.7187 100.336 81.75 101.25 80.2734C101.719 79.5 106.055 72.7969 112.219 72.7969C118.383 72.7969 122.719 79.5 123.187 80.2734C124.101 81.75 123.656 83.7187 122.156 84.6328C120.656 85.5469 118.734 85.1016 117.797 83.625C116.883 82.1719 114.305 79.1484 112.195 79.1484C110.086 79.1484 107.531 82.1719 106.594 83.625C106.031 84.5625 105 85.1016 103.945 85.1016Z" fill="url(#paint4_radial_1_246)"/>
<path d="M71.5077 85.1016C70.9452 85.1016 70.3593 84.9609 69.8437 84.6328C68.3671 83.7187 67.8984 81.75 68.8124 80.2734C69.2812 79.5 73.6171 72.7969 79.7812 72.7969C85.9452 72.7969 90.2812 79.5 90.7499 80.2734C91.664 81.75 91.2187 83.7187 89.7187 84.6328C88.2187 85.5469 86.2734 85.1016 85.3593 83.6016C84.4452 82.1484 81.8671 79.125 79.7812 79.125C77.6952 79.125 75.1171 82.1484 74.1796 83.6016C73.5937 84.5625 72.5624 85.1016 71.5077 85.1016Z" fill="url(#paint5_radial_1_246)"/>
</g>
<defs>
<linearGradient id="paint0_linear_1_246" x1="54.2644" y1="61.9643" x2="137.735" y2="145.435" gradientUnits="userSpaceOnUse">
<stop offset="0.1" stop-color="#FFF1AB"/>
<stop offset="0.4" stop-color="#FFDA24"/>
<stop offset="0.51" stop-color="#FFC81D"/>
<stop offset="0.74" stop-color="#FF9A0C"/>
<stop offset="0.9" stop-color="#FF7700"/>
</linearGradient>
<radialGradient id="paint1_radial_1_246" cx="0" cy="0" r="1" gradientUnits="userSpaceOnUse" gradientTransform="translate(95.9988 110.196) scale(19.0788 19.0788)">
<stop stop-color="#614444"/>
<stop offset="0.38" stop-color="#583C3C"/>
<stop offset="1" stop-color="#402828"/>
</radialGradient>
<linearGradient id="paint2_linear_1_246" x1="96.0117" y1="124.223" x2="96.0117" y2="112.13" gradientUnits="userSpaceOnUse">
<stop stop-color="#FF6A00"/>
<stop offset="0.99" stop-color="#FFA227"/>
</linearGradient>
<linearGradient id="paint3_linear_1_246" x1="96.0012" y1="104.184" x2="96.0012" y2="96.1688" gradientUnits="userSpaceOnUse">
<stop offset="0.65" stop-color="white"/>
<stop offset="0.75" stop-color="#F6F6F6"/>
<stop offset="0.9" stop-color="#DDDDDD"/>
<stop offset="1" stop-color="#CCCCCC"/>
</linearGradient>
<radialGradient id="paint4_radial_1_246" cx="0" cy="0" r="1" gradientUnits="userSpaceOnUse" gradientTransform="translate(112.218 78.9445) scale(9.18492 9.18492)">
<stop stop-color="#705454"/>
<stop offset="0.27" stop-color="#674C4C"/>
<stop offset="0.71" stop-color="#4E3838"/>
<stop offset="1" stop-color="#3B2828"/>
</radialGradient>
<radialGradient id="paint5_radial_1_246" cx="0" cy="0" r="1" gradientUnits="userSpaceOnUse" gradientTransform="translate(79.7847 78.9445) scale(9.18492)">
<stop stop-color="#705454"/>
<stop offset="0.27" stop-color="#674C4C"/>
<stop offset="0.71" stop-color="#4E3838"/>
<stop offset="1" stop-color="#3B2828"/>
</radialGradient>
<clipPath id="clip0_1_246">
<rect width="192" height="192" fill="white"/>
</clipPath>
</defs>
</svg>
