<svg width="192" height="192" viewBox="0 0 192 192" fill="none" xmlns="http://www.w3.org/2000/svg">
<g clip-path="url(#clip0_1_183)">
<path d="M186.195 48.6938C181.155 30.1425 161.861 10.845 143.306 5.805C131.929 2.97 116.689 0.04875 96 0C75.3113 0.04875 60.0713 2.97 48.6938 5.805C30.1425 10.845 10.845 30.1388 5.805 48.6938C2.97 60.0713 0.04875 75.3113 0 96C0.04875 116.689 2.97 131.929 5.805 143.306C10.845 161.861 30.1425 181.155 48.6938 186.195C60.0713 189.03 75.3187 191.951 96 192C116.685 191.951 131.929 189.03 143.306 186.195C161.861 181.155 181.155 161.861 186.195 143.306C189.03 131.929 191.951 116.681 192 96C191.951 75.3113 189.03 60.0713 186.195 48.6938Z" fill="#FFF1EB"/>
<path d="M159.337 81.7275C151.505 81.52 143.669 81.3712 135.829 81.2812C133.225 81.2394 130.741 80.1827 128.905 78.3363C127.069 76.49 126.027 73.9998 126 71.3962C125.937 63.3037 125.842 55.2137 125.715 47.1262C125.197 47.0925 124.654 47.0625 124.072 47.0362C121.822 46.9275 119.092 46.8525 115.534 46.8562C102.48 46.95 101.479 47.6287 95.2537 48.51L95.1 48.5362C90.0037 49.2862 85.1062 51.9337 81.2775 55.8075C77.4487 59.6812 74.88 64.6237 74.1525 69.7275L74.1975 69.7612V69.8025C73.1287 77.3025 72.495 84.5063 72.48 96.0525C72.465 107.599 73.1287 114.78 74.1975 122.303C74.9475 127.406 77.5087 132.341 81.3225 136.223C85.1362 140.104 90.0487 142.732 95.145 143.497L95.2987 143.52C101.524 144.405 103.639 145.117 116.674 145.174C129.724 145.08 130.729 144.401 136.95 143.52L137.107 143.497C142.204 142.747 147.101 140.1 150.926 136.223C154.751 132.345 157.324 127.406 158.051 122.303C159.12 114.803 159.754 107.599 159.769 96.0525C159.78 90.4163 159.619 85.8262 159.337 81.7275Z" fill="url(#paint0_linear_1_183)"/>
<path d="M123.772 123.487H94.8975C93.6423 123.487 92.4386 122.989 91.5511 122.101C90.6636 121.214 90.165 120.01 90.165 118.755C90.165 117.5 90.6636 116.296 91.5511 115.409C92.4386 114.521 93.6423 114.022 94.8975 114.022H123.772C125.028 114.022 126.231 114.521 127.119 115.409C128.006 116.296 128.505 117.5 128.505 118.755C128.505 120.01 128.006 121.214 127.119 122.101C126.231 122.989 125.028 123.487 123.772 123.487ZM137.325 103.59H94.905C93.6724 103.555 92.502 103.041 91.6424 102.157C90.7829 101.273 90.302 100.089 90.302 98.8556C90.302 97.6226 90.7829 96.4381 91.6424 95.554C92.502 94.67 93.6724 94.1559 94.905 94.1212H137.325C138.558 94.1559 139.728 94.67 140.588 95.554C141.447 96.4381 141.928 97.6226 141.928 98.8556C141.928 100.089 141.447 101.273 140.588 102.157C139.728 103.041 138.558 103.555 137.325 103.59Z" fill="url(#paint1_linear_1_183)"/>
<path d="M159.337 81.7275C151.5 81.52 143.664 81.3712 135.829 81.2812C133.225 81.2394 130.741 80.1827 128.905 78.3364C127.069 76.49 126.027 73.9998 126 71.3962C125.937 63.3038 125.842 55.2138 125.715 47.1263C125.715 47.1263 128.809 47.3925 130.897 48.6263C134.175 50.55 145.046 59.805 156.75 74.625C158.283 76.5576 159.187 78.9132 159.341 81.375C159.33 81.495 159.334 81.6113 159.337 81.7275Z" fill="url(#paint2_linear_1_183)"/>
<path d="M57.4125 127.125C56.0669 127.799 54.5604 128.086 53.0612 127.954C51.5619 127.821 50.1291 127.275 48.9225 126.375C47.7975 125.46 45.5475 125.46 44.4225 126.375H44.4037C43.0017 127.437 41.2873 128.004 39.5287 127.987C38.274 127.997 37.0358 127.701 35.9212 127.125C35.0437 126.641 33.7275 126.675 32.6775 127.099C32.8566 127.879 33.2249 128.602 33.75 129.206C37.3875 133.376 40.9237 137.662 44.25 141.499C44.5337 141.867 44.8982 142.165 45.3152 142.37C45.7323 142.575 46.1909 142.682 46.6556 142.682C47.1204 142.682 47.5789 142.575 47.996 142.37C48.413 142.165 48.7775 141.867 49.0612 141.499C52.3875 137.662 55.9275 133.376 59.5612 129.206C60.0995 128.604 60.4797 127.877 60.6675 127.091C59.625 126.668 58.29 126.634 57.4125 127.125Z" fill="url(#paint3_linear_1_183)"/>
<path d="M52.1888 48.3525C48.5245 47.6512 44.7605 47.6512 41.0963 48.3525C36.93 49.1963 33.1725 54.2813 32.8725 58.4025C32.825 59.1525 32.7788 59.9025 32.7338 60.6525C37.3466 60.066 41.9926 59.7791 46.6425 59.7938C51.2926 59.7782 55.9387 60.0663 60.5513 60.6563C60.51 59.9063 60.465 59.1563 60.4163 58.4063C60.1125 54.2813 56.3588 49.1963 52.1888 48.3525Z" fill="url(#paint4_linear_1_183)"/>
<path d="M60.9075 68.1412L60.7275 64.125C56.0593 63.4946 51.353 63.1888 46.6425 63.21C41.9332 63.1887 37.2281 63.4944 32.5612 64.125L32.3812 68.1262C32.0587 76.8487 32.2725 116.07 32.6325 127.076C33.6825 126.652 34.9987 126.619 35.8762 127.102C36.9908 127.679 38.229 127.975 39.4837 127.965C41.2423 127.981 42.9567 127.414 44.3587 126.352H44.3775C45.5025 125.437 47.7337 125.437 48.8775 126.352C50.084 127.252 51.5169 127.799 53.0161 127.931C54.5154 128.064 56.0219 127.777 57.3675 127.102C58.245 126.619 59.5612 126.652 60.6112 127.076C61.0162 116.085 61.23 76.875 60.9075 68.1412Z" fill="url(#paint5_linear_1_183)"/>
<path d="M32.7338 60.6563C37.3466 60.0697 41.9926 59.7829 46.6425 59.7975C51.2926 59.7819 55.9387 60.07 60.5513 60.66L60.7275 64.14C56.0593 63.5096 51.353 63.2038 46.6425 63.225C41.9336 63.1987 37.2285 63.4994 32.5613 64.125L32.7338 60.6563Z" fill="url(#paint6_linear_1_183)"/>
<path d="M46.6425 137.153C44.848 137.151 43.0715 137.511 41.4188 138.21C42.3763 139.335 43.3163 140.431 44.2388 141.499C44.5225 141.867 44.887 142.165 45.304 142.37C45.7211 142.575 46.1796 142.682 46.6444 142.682C47.1091 142.682 47.5677 142.575 47.9848 142.37C48.4018 142.165 48.7663 141.867 49.05 141.499C49.9725 140.434 50.9113 139.338 51.8663 138.21C50.2136 137.511 48.4371 137.151 46.6425 137.153Z" fill="url(#paint7_linear_1_183)"/>
</g>
<defs>
<linearGradient id="paint0_linear_1_183" x1="149.482" y1="137.644" x2="74.4525" y2="62.6137" gradientUnits="userSpaceOnUse">
<stop stop-color="#FE7838"/>
<stop offset="0.43" stop-color="#FE7636"/>
<stop offset="0.97" stop-color="#FFAD8A"/>
</linearGradient>
<linearGradient id="paint1_linear_1_183" x1="128.269" y1="120.956" x2="97.1887" y2="89.88" gradientUnits="userSpaceOnUse">
<stop stop-color="#FFDDCE"/>
<stop offset="0.52" stop-color="white"/>
<stop offset="1" stop-color="white"/>
</linearGradient>
<linearGradient id="paint2_linear_1_183" x1="154.147" y1="86.9175" x2="120.03" y2="52.7962" gradientUnits="userSpaceOnUse">
<stop stop-color="#34344F"/>
<stop offset="1" stop-color="#666684"/>
</linearGradient>
<linearGradient id="paint3_linear_1_183" x1="54.3525" y1="136.211" x2="38.9325" y2="120.791" gradientUnits="userSpaceOnUse">
<stop stop-color="#FF9F7D"/>
<stop offset="0.55" stop-color="#FF9F7D"/>
<stop offset="1" stop-color="#FFD4C7"/>
</linearGradient>
<linearGradient id="paint4_linear_1_183" x1="55.0575" y1="66.1538" x2="38.2313" y2="49.3275" gradientUnits="userSpaceOnUse">
<stop stop-color="#EF3739"/>
<stop offset="0.44" stop-color="#EF3739"/>
<stop offset="1" stop-color="#FF8C8B"/>
</linearGradient>
<linearGradient id="paint5_linear_1_183" x1="69.405" y1="118.342" x2="23.88" y2="72.8175" gradientUnits="userSpaceOnUse">
<stop stop-color="#1EB4EB"/>
<stop offset="0.54" stop-color="#1EB4EB"/>
<stop offset="1" stop-color="#92F4FE"/>
</linearGradient>
<linearGradient id="paint6_linear_1_183" x1="54.5138" y1="70.3537" x2="38.775" y2="54.6187" gradientUnits="userSpaceOnUse">
<stop stop-color="#BCE4ED"/>
<stop offset="0.57" stop-color="white"/>
<stop offset="1" stop-color="white"/>
</linearGradient>
<linearGradient id="paint7_linear_1_183" x1="49.3763" y1="141.188" x2="43.9125" y2="135.72" gradientUnits="userSpaceOnUse">
<stop stop-color="#34344F"/>
<stop offset="0.26" stop-color="#3B3B57"/>
<stop offset="0.66" stop-color="#50506D"/>
<stop offset="1" stop-color="#666684"/>
</linearGradient>
<clipPath id="clip0_1_183">
<rect width="192" height="192" fill="white"/>
</clipPath>
</defs>
</svg>
