<svg width="192" height="192" viewBox="0 0 192 192" fill="none" xmlns="http://www.w3.org/2000/svg">
<g clip-path="url(#clip0_5_11)">
<path d="M186.195 48.6938C181.155 30.1425 161.861 10.845 143.306 5.805C131.929 2.97 116.689 0.04875 96 0C75.3113 0.04875 60.0713 2.97 48.6938 5.805C30.1425 10.845 10.845 30.1388 5.805 48.6938C2.97 60.0713 0.04875 75.3113 0 96C0.04875 116.689 2.97 131.929 5.805 143.306C10.845 161.861 30.1425 181.155 48.6938 186.195C60.0713 189.03 75.3187 191.951 96 192C116.685 191.951 131.929 189.03 143.306 186.195C161.861 181.155 181.155 161.861 186.195 143.306C189.03 131.929 191.951 116.681 192 96C191.951 75.3113 189.03 60.0713 186.195 48.6938Z" fill="#FFE5E5"/>
<path d="M96 32.2087C60.7687 32.2087 32.2087 60.7687 32.2087 96C32.2087 131.231 60.7687 159.791 96 159.791C131.231 159.791 159.791 131.231 159.791 96C159.791 60.7687 131.231 32.2087 96 32.2087Z" fill="url(#paint0_linear_5_11)"/>
<path d="M125.85 105.049C113.756 113.37 98.8874 121.777 87.8924 126.956C81.6787 130.207 72.5999 124.601 72.1162 116.73C71.0999 102.911 71.0999 89.0925 72.1162 75.2737C72.5999 67.3987 81.6824 61.7962 87.8924 65.0475C98.8874 70.2262 113.756 78.6337 125.85 86.955C129.15 89.2387 130.597 92.6325 130.616 96.0037C130.597 99.375 129.15 102.769 125.85 105.052V105.049Z" fill="url(#paint1_linear_5_11)"/>
</g>
<defs>
<linearGradient id="paint0_linear_5_11" x1="141.109" y1="141.109" x2="50.895" y2="50.895" gradientUnits="userSpaceOnUse">
<stop stop-color="#EF3739"/>
<stop offset="0.44" stop-color="#EF3739"/>
<stop offset="1" stop-color="#FF8C8B"/>
</linearGradient>
<linearGradient id="paint1_linear_5_11" x1="113.227" y1="117.945" x2="69.3449" y2="74.0587" gradientUnits="userSpaceOnUse">
<stop stop-color="#FFD2D2"/>
<stop offset="0.57" stop-color="white"/>
<stop offset="1" stop-color="white"/>
</linearGradient>
<clipPath id="clip0_5_11">
<rect width="192" height="192" fill="white"/>
</clipPath>
</defs>
</svg>
