<svg width="192" height="192" viewBox="0 0 192 192" fill="none" xmlns="http://www.w3.org/2000/svg">
<g clip-path="url(#clip0_1_173)">
<path d="M186.195 48.6938C181.155 30.1425 161.861 10.845 143.306 5.805C131.929 2.97 116.689 0.04875 96 0C75.3113 0.04875 60.0713 2.97 48.6938 5.805C30.1425 10.845 10.845 30.1388 5.805 48.6938C2.97 60.0713 0.04875 75.3113 0 96C0.04875 116.689 2.97 131.929 5.805 143.306C10.845 161.861 30.1425 181.155 48.6938 186.195C60.0713 189.03 75.3187 191.951 96 192C116.685 191.951 131.929 189.03 143.306 186.195C161.861 181.155 181.155 161.861 186.195 143.306C189.03 131.929 191.951 116.681 192 96C191.951 75.3113 189.03 60.0713 186.195 48.6938Z" fill="#F2EEFF"/>
<path d="M47.2913 109.714C45.0788 109.733 43.3725 109.819 41.8575 109.976C40.6992 110.097 39.6174 110.612 38.7939 111.435C37.9704 112.259 37.4553 113.34 37.335 114.499V114.536C37.2516 115.26 37.2066 115.987 37.2 116.715C37.2009 117.592 37.2459 118.468 37.335 119.34V119.374C37.4559 120.532 37.9711 121.614 38.7944 122.438C39.6177 123.262 40.6991 123.778 41.8575 123.9C43.8729 124.092 45.8968 124.179 47.9213 124.163L47.2913 109.714ZM47.955 67.3388C45.9193 67.3229 43.8841 67.4118 41.8575 67.605C40.6986 67.7255 39.6164 68.2411 38.7928 69.0654C37.9693 69.8896 37.4545 70.9722 37.335 72.1313V72.165C37.2516 72.8884 37.2066 73.6156 37.2 74.3438C37.2009 75.2205 37.2459 76.0966 37.335 76.9688V77.0025C37.4559 78.161 37.9711 79.2429 38.7944 80.0669C39.6177 80.8908 40.6991 81.407 41.8575 81.5288C43.3575 81.6863 45.0863 81.7725 47.3063 81.7913L47.955 67.3388Z" fill="url(#paint0_linear_1_173)"/>
<path d="M47.9212 124.155C48.12 127.189 48.3562 130.024 48.6262 132.641C49.3038 139.157 52.2019 145.241 56.8342 149.872C61.4664 154.504 67.5508 157.401 74.0662 158.078L74.2612 158.1C82.1887 158.925 92.9212 159.578 100.969 159.578C109.121 159.578 119.745 158.925 127.672 158.1L127.871 158.078C134.386 157.399 140.469 154.502 145.1 149.87C149.732 145.239 152.629 139.156 153.307 132.641C154.301 123.094 154.807 110.768 154.807 96C154.807 81.2325 154.305 68.9062 153.307 59.3587C152.628 52.8453 149.731 46.7634 145.1 42.1324C140.47 37.5013 134.388 34.6028 127.875 33.9225L127.672 33.9C118.804 32.9451 109.892 32.4519 100.972 32.4225C92.0452 32.4449 83.1253 32.9381 74.25 33.9L74.0512 33.9225C67.5366 34.6012 61.4533 37.499 56.8215 42.1302C52.1896 46.7613 49.2909 52.8442 48.6112 59.3587C48.3612 61.8312 48.1375 64.4863 47.94 67.3238L47.2912 81.7687C47.1737 86.2237 47.115 90.9675 47.115 96C47.115 100.838 47.1687 105.409 47.2762 109.714L47.9212 124.155Z" fill="url(#paint1_linear_1_173)"/>
<rect x="64" y="56" width="73" height="29.2" rx="10.1077" fill="url(#paint2_linear_1_173)"/>
</g>
<defs>
<linearGradient id="paint0_linear_1_173" x1="54.0075" y1="105.514" x2="21.8925" y2="73.395" gradientUnits="userSpaceOnUse">
<stop stop-color="#34344F"/>
<stop offset="0.54" stop-color="#353551"/>
<stop offset="1" stop-color="#666684"/>
</linearGradient>
<linearGradient id="paint1_linear_1_173" x1="149.97" y1="145.001" x2="51.9637" y2="46.9988" gradientUnits="userSpaceOnUse">
<stop stop-color="#6F2EFE"/>
<stop offset="0.52" stop-color="#6F2EFE"/>
<stop offset="1" stop-color="#AE90FF"/>
</linearGradient>
<linearGradient id="paint2_linear_1_173" x1="131.662" y1="83.3395" x2="119.86" y2="46.6908" gradientUnits="userSpaceOnUse">
<stop stop-color="#E0DCFF"/>
<stop offset="0.57" stop-color="white"/>
<stop offset="1" stop-color="white"/>
</linearGradient>
<clipPath id="clip0_1_173">
<rect width="192" height="192" fill="white"/>
</clipPath>
</defs>
</svg>
