<svg width="192" height="192" viewBox="0 0 192 192" fill="none" xmlns="http://www.w3.org/2000/svg">
<g clip-path="url(#clip0_1_268)">
<path d="M186.195 48.6938C181.155 30.1425 161.861 10.845 143.306 5.805C131.929 2.97 116.689 0.04875 96 0C75.3113 0.04875 60.0713 2.97 48.6938 5.805C30.1425 10.845 10.845 30.1388 5.805 48.6938C2.97 60.0713 0.04875 75.3113 0 96C0.04875 116.689 2.97 131.929 5.805 143.306C10.845 161.861 30.1425 181.155 48.6938 186.195C60.0713 189.03 75.3187 191.951 96 192C116.685 191.951 131.929 189.03 143.306 186.195C161.861 181.155 181.155 161.861 186.195 143.306C189.03 131.929 191.951 116.681 192 96C191.951 75.3113 189.03 60.0713 186.195 48.6938Z" fill="#FFEBEB"/>
<path d="M74.9062 127.875H127.57C135.408 127.875 142.346 122.635 144.451 115.129L155.86 75.8878C156.012 75.364 156.041 74.8119 155.943 74.2751C155.845 73.7384 155.624 73.2319 155.296 72.7956C154.969 72.3592 154.544 72.0052 154.056 71.7613C153.568 71.5175 153.03 71.3905 152.484 71.3906H63.6675L59.5392 52.1198C57.5304 42.7793 49.1093 36 39.5156 36C37.5741 36 36 37.5741 36 39.5156C36 41.4572 37.5741 43.0312 39.5156 43.0312C45.7165 43.0312 51.3696 47.5741 52.6648 53.5955L65.6037 113.993C66.2597 117.044 67.7306 119.865 69.8203 122.155C66.5677 123.953 64.3594 127.418 64.3594 131.391C64.3594 136.248 67.6605 140.346 72.1362 141.566C71.6432 142.803 71.3902 144.122 71.3906 145.453C71.3906 151.269 76.122 156 81.9375 156C87.753 156 92.4844 151.269 92.4844 145.453C92.4849 144.255 92.2803 143.066 91.8797 141.938H121.214C120.813 143.066 120.609 144.255 120.609 145.453C120.609 151.269 125.341 156 131.156 156C136.972 156 141.703 151.269 141.703 145.453C141.704 144.255 141.499 143.066 141.098 141.938H145.219C147.16 141.938 148.734 140.363 148.734 138.422C148.734 136.48 147.16 134.906 145.219 134.906H74.9062C72.9677 134.906 71.3906 133.329 71.3906 131.391C71.3906 129.452 72.9677 127.875 74.9062 127.875Z" fill="url(#paint0_linear_1_268)"/>
<path d="M128.212 85.3997C126.297 85.084 124.488 86.381 124.172 88.2968L120.656 109.625C120.34 111.541 121.637 113.35 123.553 113.666C125.474 113.982 127.279 112.679 127.594 110.768L131.109 89.4403C131.425 87.5243 130.128 85.7154 128.212 85.3997ZM88.9218 88.2966C88.6061 86.3808 86.7977 85.0838 84.8812 85.3995C82.9654 85.7152 81.6684 87.5243 81.9841 89.4401L85.4997 110.768C85.8147 112.679 87.6199 113.982 89.5403 113.665C91.4561 113.35 92.7532 111.54 92.4375 109.625L88.9218 88.2966ZM106.547 85.3528C104.605 85.3528 103.031 86.9269 103.031 88.8684V110.197C103.031 112.138 104.605 113.712 106.547 113.712C108.488 113.712 110.062 112.138 110.062 110.197V88.8684C110.062 86.9269 108.488 85.3528 106.547 85.3528Z" fill="url(#paint1_linear_1_268)"/>
</g>
<defs>
<linearGradient id="paint0_linear_1_268" x1="96.0001" y1="156" x2="96.0001" y2="36" gradientUnits="userSpaceOnUse">
<stop stop-color="#C02A2A"/>
<stop offset="1" stop-color="#FF0000"/>
</linearGradient>
<linearGradient id="paint1_linear_1_268" x1="106.567" y1="113.466" x2="106.567" y2="85.3521" gradientUnits="userSpaceOnUse">
<stop stop-color="#FFD4D4"/>
<stop offset="1" stop-color="white"/>
</linearGradient>
<clipPath id="clip0_1_268">
<rect width="192" height="192" fill="white"/>
</clipPath>
</defs>
</svg>
