<svg width="192" height="192" viewBox="0 0 192 192" fill="none" xmlns="http://www.w3.org/2000/svg">
<g clip-path="url(#clip0_5_2)">
<path d="M186.195 48.6938C181.155 30.1425 161.861 10.845 143.306 5.805C131.929 2.97 116.689 0.04875 96 0C75.3113 0.04875 60.0713 2.97 48.6938 5.805C30.1425 10.845 10.845 30.1388 5.805 48.6938C2.97 60.0713 0.04875 75.3113 0 96C0.04875 116.689 2.97 131.929 5.805 143.306C10.845 161.861 30.1425 181.155 48.6938 186.195C60.0713 189.03 75.3187 191.951 96 192C116.685 191.951 131.929 189.03 143.306 186.195C161.861 181.155 181.155 161.861 186.195 143.306C189.03 131.929 191.951 116.681 192 96C191.951 75.3113 189.03 60.0713 186.195 48.6938Z" fill="#F4FCFF"/>
<path d="M95.805 159.78C103.988 159.754 125.535 158.869 129.821 157.976C136.946 156.401 143.46 149.501 144.848 142.361C145.714 138.011 146.79 115.185 146.7 107.16C146.79 99.135 145.714 76.305 144.848 71.9587C143.46 64.8337 136.939 57.9187 129.821 56.34C129.191 56.2125 128.389 56.0812 127.455 55.965C119.175 55.215 104.093 54.6037 97.08 54.5887C89.6738 54.5887 75.15 55.2862 67.83 56.0887C67.3481 56.1412 66.8607 56.0982 66.3954 55.9622C65.9301 55.8263 65.4962 55.6 65.1184 55.2964C64.7406 54.9927 64.4263 54.6176 64.1934 54.1925C63.9605 53.7674 63.8137 53.3006 63.7613 52.8187C63.7088 52.3369 63.7518 51.8494 63.8877 51.3841C64.0237 50.9188 64.2499 50.4849 64.5536 50.1071C64.8572 49.7293 65.2323 49.415 65.6574 49.1821C66.0826 48.9493 66.5494 48.8024 67.0313 48.75C75.1088 47.8575 89.9063 47.2125 97.0575 47.2012C103.455 47.2012 117.383 47.7262 126.488 48.4725C124.661 41.7637 118.466 35.5162 111.739 34.0275C107.415 33.1275 94.9875 32.2462 86.9588 32.235C78.93 32.2237 66.5063 33.1275 62.1825 34.0275C55.0575 35.6025 48.5438 42.5062 47.1563 49.6425C46.29 53.9925 45.2138 78.8137 45.3038 86.8387V88.0575C45.3038 99.3075 46.545 133.616 47.5538 138.682C49.23 147.334 57.1388 155.7 65.7675 157.612C71.0063 158.696 86.0738 159.75 95.805 159.78Z" fill="url(#paint0_linear_5_2)"/>
<path d="M63.7501 52.1587C63.8081 51.2953 64.1677 50.4797 64.7662 49.8545C65.3646 49.2293 66.1637 48.8344 67.0238 48.7387C75.1013 47.8462 89.8988 47.2012 97.0501 47.19C103.448 47.19 117.375 47.715 126.48 48.4612C124.654 41.7525 118.459 35.505 111.731 34.0162C107.408 33.1162 94.9801 32.235 86.9513 32.2237C78.9226 32.2125 66.4988 33.1162 62.1751 34.0162C55.0501 35.5912 48.5363 42.495 47.1488 49.6312C46.2826 53.9812 45.2063 78.8025 45.2963 86.8275V88.0462C45.2963 99.2962 46.5376 133.605 47.5463 138.671C49.2226 147.322 57.1313 155.689 65.7601 157.601C65.7601 157.601 64.5488 140.269 63.5626 122.175C61.2638 79.875 63.7501 52.1587 63.7501 52.1587Z" fill="url(#paint1_linear_5_2)"/>
<path d="M127.455 55.9538C119.175 55.2038 104.092 54.5925 97.0799 54.5775C89.6737 54.5775 75.1462 55.275 67.8299 56.0775C66.8846 56.1333 65.9541 55.8235 65.2308 55.2123C64.5076 54.6011 64.047 53.7352 63.9443 52.7938C63.8417 51.8524 64.105 50.9077 64.6795 50.155C65.2541 49.4023 66.0961 48.8993 67.0312 48.75C75.1087 47.8575 89.9062 47.2125 97.0575 47.2013C103.455 47.2013 117.382 47.7263 126.487 48.4725C126.487 48.4613 127.38 52.6913 127.455 55.9538Z" fill="url(#paint2_linear_5_2)"/>
<path d="M122.824 92.4788H80.4C79.767 92.4966 79.137 92.3873 78.547 92.1574C77.957 91.9275 77.4191 91.5816 76.9651 91.1403C76.5112 90.6989 76.1503 90.1709 75.9039 89.5876C75.6574 89.0044 75.5305 88.3776 75.5305 87.7444C75.5305 87.1112 75.6574 86.4845 75.9039 85.9012C76.1503 85.3179 76.5112 84.79 76.9651 84.3486C77.4191 83.9072 77.957 83.5613 78.547 83.3314C79.137 83.1015 79.767 82.9922 80.4 83.0101H122.824C124.056 83.0447 125.227 83.5588 126.086 84.4428C126.946 85.3269 127.427 86.5114 127.427 87.7444C127.427 88.9775 126.946 90.1619 126.086 91.046C125.227 91.9301 124.056 92.4441 122.824 92.4788ZM109.271 112.38H80.3962C79.7633 112.398 79.1332 112.289 78.5432 112.059C77.9533 111.829 77.4154 111.483 76.9614 111.042C76.5074 110.6 76.1465 110.072 75.9001 109.489C75.6537 108.906 75.5267 108.279 75.5267 107.646C75.5267 107.012 75.6537 106.386 75.9001 105.802C76.1465 105.219 76.5074 104.691 76.9614 104.25C77.4154 103.808 77.9533 103.463 78.5432 103.233C79.1332 103.003 79.7633 102.893 80.3962 102.911H109.271C110.504 102.946 111.674 103.46 112.534 104.344C113.393 105.228 113.874 106.413 113.874 107.646C113.874 108.879 113.393 110.063 112.534 110.947C111.674 111.831 110.504 112.345 109.271 112.38Z" fill="url(#paint3_linear_5_2)"/>
</g>
<defs>
<linearGradient id="paint0_linear_5_2" x1="142.136" y1="149.614" x2="42.3863" y2="49.8637" gradientUnits="userSpaceOnUse">
<stop stop-color="#1EB4EB"/>
<stop offset="0.54" stop-color="#1EB4EB"/>
<stop offset="1" stop-color="#92F4FE"/>
</linearGradient>
<linearGradient id="paint1_linear_5_2" x1="108.866" y1="116.344" x2="43.3013" y2="50.7825" gradientUnits="userSpaceOnUse">
<stop stop-color="#0E95E0"/>
<stop offset="1" stop-color="#2FBDEE"/>
</linearGradient>
<linearGradient id="paint2_linear_5_2" x1="113.662" y1="69.7463" x2="79.2712" y2="35.355" gradientUnits="userSpaceOnUse">
<stop stop-color="#34344F"/>
<stop offset="1" stop-color="#666684"/>
</linearGradient>
<linearGradient id="paint3_linear_5_2" x1="113.764" y1="109.849" x2="82.6837" y2="78.7651" gradientUnits="userSpaceOnUse">
<stop stop-color="#BCE4ED"/>
<stop offset="0.57" stop-color="white"/>
<stop offset="1" stop-color="white"/>
</linearGradient>
<clipPath id="clip0_5_2">
<rect width="192" height="192" fill="white"/>
</clipPath>
</defs>
</svg>
